<svg width="20" height="15" viewBox="0 0 20 15" fill="none" xmlns="http://www.w3.org/2000/svg">
<path d="M14.7436 8.46829H12.4973C12.2933 8.46829 12.1282 8.63436 12.1282 8.84008C12.1282 9.0458 12.2933 9.21187 12.4973 9.21187H14.7436C14.9477 9.21187 15.1126 9.0458 15.1126 8.84008C15.1126 8.63436 14.9477 8.46829 14.7436 8.46829ZM14.7436 9.88853H12.4973C12.2933 9.88853 12.1282 10.0546 12.1282 10.2603C12.1282 10.466 12.2933 10.6321 12.4973 10.6321H14.7436C14.9477 10.6321 15.1126 10.466 15.1126 10.2603C15.1126 10.0546 14.9477 9.88853 14.7436 9.88853ZM13.6218 6.29951C14.4237 6.29951 15.0757 5.64268 15.0757 4.83466C15.0757 4.02663 14.4237 3.3698 13.6218 3.3698C12.8198 3.3698 12.1679 4.02663 12.1679 4.83466C12.1679 5.64268 12.8198 6.29951 13.6218 6.29951ZM13.6218 4.11338C14.0156 4.11338 14.3376 4.43833 14.3376 4.83466C14.3376 5.23098 14.0154 5.55593 13.6218 5.55593C13.2259 5.55593 12.9059 5.23098 12.9059 4.83466C12.9059 4.43833 13.2257 4.11338 13.6218 4.11338ZM18.3648 12.0695H17.5284V6.05661H17.8432C18.4238 6.05661 18.8986 5.58072 18.8986 4.99354V3.0974C18.8986 2.50997 18.4238 2.03408 17.8432 2.03408H17.5284C17.5212 1.45384 17.0513 0.983154 16.4757 0.983154H2.67443C2.09139 0.983154 1.61905 1.46177 1.61905 2.04647V6.04446C1.61905 6.56993 2.00037 7.00616 2.49976 7.08795V8.3741C2.49976 8.57983 2.66459 8.74589 2.86877 8.74589H3.69536V10.2606C3.69536 10.4663 3.86018 10.6324 4.06437 10.6324C4.26855 10.6324 4.43338 10.4663 4.43338 10.2606V8.74589H5.25972C5.4639 8.74589 5.62873 8.57983 5.62873 8.3741V7.10778H9.7127V12.0697H1.8011C1.22052 12.0697 0.745728 12.5486 0.745728 13.1333V13.9485C0.745728 14.1542 0.913013 14.3203 1.11474 14.3203H19.0487C19.2529 14.3203 19.4177 14.1542 19.4177 13.9485V13.1333C19.4177 12.5483 18.9454 12.0695 18.3648 12.0695ZM17.5284 2.77742H17.8432C18.0179 2.77742 18.1606 2.92093 18.1606 3.09716V4.99329C18.1606 5.16902 18.0179 5.31278 17.8432 5.31278H17.5284V2.77742ZM10.4507 1.72649H16.4754C16.6501 1.72649 16.7901 1.87025 16.7901 2.04623V2.86169C16.7901 2.86912 16.7901 2.87656 16.7901 2.884V12.0695H10.4507V1.72649ZM4.89071 8.00206H3.23754V7.10754H4.89071V8.00206ZM2.67443 6.36395C2.49976 6.36395 2.35708 6.2202 2.35708 6.04421V5.20645H4.06437C4.26855 5.20645 4.43338 5.04038 4.43338 4.83466C4.43338 4.62893 4.26855 4.46287 4.06437 4.46287H2.35708V2.04623C2.35708 1.87025 2.49976 1.72649 2.67443 1.72649H9.7127V4.46287H5.8184C5.61421 4.46287 5.44939 4.62893 5.44939 4.83466C5.44939 5.04038 5.61421 5.20645 5.8184 5.20645H9.7127V6.36395H2.67443ZM18.6797 13.5764H1.48375V13.133C1.48375 12.9568 1.62643 12.813 1.8011 12.813H18.3648C18.5394 12.813 18.6797 12.9568 18.6797 13.133V13.5764Z" fill="#7D8893"/>
</svg>
