<svg width="74" height="33" viewBox="0 0 74 33" fill="none" xmlns="http://www.w3.org/2000/svg">
<mask id="path-1-outside-1_26_431" maskUnits="userSpaceOnUse" x="-0.181641" y="-0.463867" width="75" height="34" fill="black">
<rect fill="white" x="-0.181641" y="-0.463867" width="75" height="34"/>
<path d="M2.56806 29.2817H4.79174V31.1738C4.79174 31.93 5.49437 32.5452 6.35735 32.5452H13.6535C14.5169 32.5452 15.2191 31.93 15.2191 31.1738V29.2817H17.7406C18.7052 29.2817 19.4903 28.5586 19.4903 27.6693V5.37541C19.4903 4.48652 18.7056 3.76298 17.7406 3.76298H15.2191V1.90751C15.2191 1.1513 14.5165 0.536133 13.6535 0.536133H6.35735C5.49395 0.536133 4.79174 1.1513 4.79174 1.90751V3.76298H2.56806C1.60346 3.76298 0.818359 4.48612 0.818359 5.37541V27.6693C0.818359 28.5586 1.60346 29.2817 2.56806 29.2817ZM18.6573 13.5224V14.9599H1.65135V13.5224H18.6573ZM1.65135 12.7256V11.2876H18.6573V12.7256H1.65135ZM18.6573 15.7572V17.1947H1.65135V15.7572H18.6573ZM18.6573 17.9915V19.4291H1.65135V17.9915H18.6573ZM18.6573 20.2263V21.6638H1.65135V20.2263H18.6573ZM18.6573 22.4607V23.8986H1.65135V22.4607H18.6573ZM18.6573 10.4908H1.65135V9.05327H18.6573V10.4908ZM1.65135 24.6954H18.6573V26.133H1.65135V24.6954ZM18.6573 8.25642H1.65135V6.8185H18.6573V8.25642ZM14.3862 31.1738C14.3862 31.4906 14.0575 31.7484 13.6535 31.7484H6.35735C5.95335 31.7484 5.62473 31.4906 5.62473 31.1738V29.2817H14.3862V31.1738ZM17.741 28.4849H2.56806C2.06244 28.4849 1.65135 28.1191 1.65135 27.6693V26.9302H18.6573V27.6693C18.6573 28.1191 18.2462 28.4849 17.741 28.4849ZM5.62473 1.90751C5.62473 1.59076 5.95335 1.33298 6.35735 1.33298H13.6535C14.0575 1.33298 14.3862 1.59076 14.3862 1.90751V3.76298H5.62473V1.90751ZM2.56806 4.55983H17.7406C18.2458 4.55983 18.6573 4.92558 18.6573 5.37541V6.02165H1.65135V5.37541C1.65135 4.92558 2.06244 4.55983 2.56806 4.55983Z"/>
<path d="M24.4002 16.4934C24.0319 16.4934 23.7333 16.1948 23.7333 15.8265V14.9617C23.7333 14.5934 24.0319 14.2948 24.4002 14.2948H34.1842C34.5525 14.2948 34.851 14.5934 34.851 14.9617V15.8265C34.851 16.1948 34.5525 16.4934 34.1842 16.4934H31.2146C30.8463 16.4934 30.5477 16.7919 30.5477 17.1602V27.8612C30.5477 28.2295 30.2492 28.528 29.8809 28.528H28.7139C28.3456 28.528 28.047 28.2295 28.047 27.8612V17.1602C28.047 16.7919 27.7485 16.4934 27.3802 16.4934H24.4002Z"/>
<path d="M33.6398 19.0876C33.5066 18.6584 33.8274 18.223 34.2767 18.223H35.1944C35.491 18.223 35.752 18.4189 35.8348 18.7038L37.271 23.6448C37.4541 24.2744 38.3405 24.2896 38.545 23.6666L40.1811 18.6819C40.271 18.4081 40.5266 18.223 40.8147 18.223H41.8077C42.0958 18.223 42.3514 18.4081 42.4413 18.6819L44.0774 23.6666C44.2819 24.2896 45.1684 24.2744 45.3514 23.6448L46.7877 18.7038C46.8704 18.4189 47.1314 18.223 47.428 18.223H48.3457C48.7951 18.223 49.1158 18.6584 48.9826 19.0876L46.1978 28.0589C46.1112 28.3379 45.853 28.528 45.5609 28.528H44.186C43.8951 28.528 43.6377 28.3394 43.5501 28.062L41.5656 21.7791C41.4871 21.5306 41.1354 21.5306 41.0569 21.7791L39.0723 28.062C38.9847 28.3394 38.7273 28.528 38.4364 28.528H37.0615C36.7694 28.528 36.5113 28.3379 36.4247 28.0589L33.6398 19.0876Z"/>
<path d="M49.6052 16.5559C49.3343 16.285 49.1989 15.9585 49.1989 15.5765C49.1989 15.1944 49.3343 14.8679 49.6052 14.597C49.8831 14.3261 50.2096 14.1906 50.5847 14.1906C50.9737 14.1906 51.3002 14.3261 51.5641 14.597C51.835 14.8679 51.9705 15.1944 51.9705 15.5765C51.9705 15.9585 51.835 16.285 51.5641 16.5559C51.3002 16.8268 50.9737 16.9623 50.5847 16.9623C50.2096 16.9623 49.8831 16.8268 49.6052 16.5559ZM50.1366 28.528C49.7683 28.528 49.4698 28.2295 49.4698 27.8612V18.8899C49.4698 18.5216 49.7683 18.223 50.1366 18.223H51.0431C51.4114 18.223 51.71 18.5216 51.71 18.8899V27.8612C51.71 28.2295 51.4114 28.528 51.0431 28.528H50.1366Z"/>
<path d="M53.9502 28.528C53.5819 28.528 53.2834 28.2295 53.2834 27.8612V18.8899C53.2834 18.5216 53.5819 18.223 53.9502 18.223H54.8567C55.225 18.223 55.5236 18.5216 55.5236 18.8899V19.6297C55.9126 19.1712 56.4266 18.7787 57.0657 18.4523C57.7048 18.1258 58.3994 17.9625 59.1496 17.9625C60.2471 17.9625 61.0772 18.2473 61.6399 18.817C62.2026 19.3866 62.4839 20.2062 62.4839 21.276V27.8612C62.4839 28.2295 62.1853 28.528 61.817 28.528H60.9105C60.5422 28.528 60.2437 28.2295 60.2437 27.8612V22.0887C60.2437 21.3246 60.0631 20.7793 59.7018 20.4528C59.3476 20.1194 58.837 19.9527 58.1702 19.9527C57.6283 19.9527 57.1213 20.0881 56.6489 20.3591C56.2467 20.5838 55.9151 20.8538 55.6539 21.1692C55.5653 21.2763 55.5236 21.4132 55.5236 21.5522V27.8612C55.5236 28.2295 55.225 28.528 54.8567 28.528H53.9502Z"/>
<path d="M63.4217 23.3599C63.4217 22.3735 63.6405 21.4705 64.0781 20.6508C64.5227 19.8242 65.1478 19.1712 65.9536 18.6919C66.7594 18.2057 67.659 17.9625 68.6523 17.9625C70.1805 17.9625 71.4066 18.4905 72.3304 19.5463C73.2613 20.5952 73.7267 21.9394 73.7267 23.5787C73.7267 23.8722 73.4887 24.1101 73.1953 24.1101H66.0641C65.9051 24.1101 65.7805 24.2486 65.8106 24.4047C65.9423 25.0879 66.2609 25.667 66.7663 26.1419C67.3499 26.6768 68.1105 26.9443 69.0482 26.9443C69.5692 26.9443 70.0972 26.847 70.632 26.6525C70.8928 26.5556 71.1318 26.4409 71.3491 26.3086C71.704 26.0925 72.1942 26.1326 72.4313 26.4738L72.6722 26.8204C72.8594 27.0898 72.8257 27.4596 72.5634 27.6566C72.1507 27.9665 71.6806 28.2153 71.153 28.403C70.4306 28.66 69.6526 28.7885 68.819 28.7885C67.2561 28.7885 65.964 28.2884 64.9429 27.2881C63.9287 26.2809 63.4217 24.9715 63.4217 23.3599ZM65.7818 22.2493C65.7553 22.4031 65.8791 22.5368 66.0351 22.5368H70.8525C71.2321 22.5368 71.5417 22.2158 71.4361 21.8512C71.4116 21.7666 71.3833 21.6825 71.351 21.599C71.2398 21.2864 71.0731 20.9912 70.8508 20.7133C70.6286 20.4355 70.3264 20.2132 69.9443 20.0465C69.5692 19.8798 69.1385 19.7964 68.6523 19.7964C68.1938 19.7964 67.7771 19.8798 67.4019 20.0465C67.0338 20.2062 66.7351 20.425 66.5059 20.7029C66.2836 20.9738 66.1064 21.2656 65.9745 21.5782C65.8858 21.7949 65.8216 22.0186 65.7818 22.2493Z"/>
</mask>
<path d="M2.56806 29.2817H4.79174V31.1738C4.79174 31.93 5.49437 32.5452 6.35735 32.5452H13.6535C14.5169 32.5452 15.2191 31.93 15.2191 31.1738V29.2817H17.7406C18.7052 29.2817 19.4903 28.5586 19.4903 27.6693V5.37541C19.4903 4.48652 18.7056 3.76298 17.7406 3.76298H15.2191V1.90751C15.2191 1.1513 14.5165 0.536133 13.6535 0.536133H6.35735C5.49395 0.536133 4.79174 1.1513 4.79174 1.90751V3.76298H2.56806C1.60346 3.76298 0.818359 4.48612 0.818359 5.37541V27.6693C0.818359 28.5586 1.60346 29.2817 2.56806 29.2817ZM18.6573 13.5224V14.9599H1.65135V13.5224H18.6573ZM1.65135 12.7256V11.2876H18.6573V12.7256H1.65135ZM18.6573 15.7572V17.1947H1.65135V15.7572H18.6573ZM18.6573 17.9915V19.4291H1.65135V17.9915H18.6573ZM18.6573 20.2263V21.6638H1.65135V20.2263H18.6573ZM18.6573 22.4607V23.8986H1.65135V22.4607H18.6573ZM18.6573 10.4908H1.65135V9.05327H18.6573V10.4908ZM1.65135 24.6954H18.6573V26.133H1.65135V24.6954ZM18.6573 8.25642H1.65135V6.8185H18.6573V8.25642ZM14.3862 31.1738C14.3862 31.4906 14.0575 31.7484 13.6535 31.7484H6.35735C5.95335 31.7484 5.62473 31.4906 5.62473 31.1738V29.2817H14.3862V31.1738ZM17.741 28.4849H2.56806C2.06244 28.4849 1.65135 28.1191 1.65135 27.6693V26.9302H18.6573V27.6693C18.6573 28.1191 18.2462 28.4849 17.741 28.4849ZM5.62473 1.90751C5.62473 1.59076 5.95335 1.33298 6.35735 1.33298H13.6535C14.0575 1.33298 14.3862 1.59076 14.3862 1.90751V3.76298H5.62473V1.90751ZM2.56806 4.55983H17.7406C18.2458 4.55983 18.6573 4.92558 18.6573 5.37541V6.02165H1.65135V5.37541C1.65135 4.92558 2.06244 4.55983 2.56806 4.55983Z" fill="white"/>
<path d="M24.4002 16.4934C24.0319 16.4934 23.7333 16.1948 23.7333 15.8265V14.9617C23.7333 14.5934 24.0319 14.2948 24.4002 14.2948H34.1842C34.5525 14.2948 34.851 14.5934 34.851 14.9617V15.8265C34.851 16.1948 34.5525 16.4934 34.1842 16.4934H31.2146C30.8463 16.4934 30.5477 16.7919 30.5477 17.1602V27.8612C30.5477 28.2295 30.2492 28.528 29.8809 28.528H28.7139C28.3456 28.528 28.047 28.2295 28.047 27.8612V17.1602C28.047 16.7919 27.7485 16.4934 27.3802 16.4934H24.4002Z" fill="white"/>
<path d="M33.6398 19.0876C33.5066 18.6584 33.8274 18.223 34.2767 18.223H35.1944C35.491 18.223 35.752 18.4189 35.8348 18.7038L37.271 23.6448C37.4541 24.2744 38.3405 24.2896 38.545 23.6666L40.1811 18.6819C40.271 18.4081 40.5266 18.223 40.8147 18.223H41.8077C42.0958 18.223 42.3514 18.4081 42.4413 18.6819L44.0774 23.6666C44.2819 24.2896 45.1684 24.2744 45.3514 23.6448L46.7877 18.7038C46.8704 18.4189 47.1314 18.223 47.428 18.223H48.3457C48.7951 18.223 49.1158 18.6584 48.9826 19.0876L46.1978 28.0589C46.1112 28.3379 45.853 28.528 45.5609 28.528H44.186C43.8951 28.528 43.6377 28.3394 43.5501 28.062L41.5656 21.7791C41.4871 21.5306 41.1354 21.5306 41.0569 21.7791L39.0723 28.062C38.9847 28.3394 38.7273 28.528 38.4364 28.528H37.0615C36.7694 28.528 36.5113 28.3379 36.4247 28.0589L33.6398 19.0876Z" fill="white"/>
<path d="M49.6052 16.5559C49.3343 16.285 49.1989 15.9585 49.1989 15.5765C49.1989 15.1944 49.3343 14.8679 49.6052 14.597C49.8831 14.3261 50.2096 14.1906 50.5847 14.1906C50.9737 14.1906 51.3002 14.3261 51.5641 14.597C51.835 14.8679 51.9705 15.1944 51.9705 15.5765C51.9705 15.9585 51.835 16.285 51.5641 16.5559C51.3002 16.8268 50.9737 16.9623 50.5847 16.9623C50.2096 16.9623 49.8831 16.8268 49.6052 16.5559ZM50.1366 28.528C49.7683 28.528 49.4698 28.2295 49.4698 27.8612V18.8899C49.4698 18.5216 49.7683 18.223 50.1366 18.223H51.0431C51.4114 18.223 51.71 18.5216 51.71 18.8899V27.8612C51.71 28.2295 51.4114 28.528 51.0431 28.528H50.1366Z" fill="white"/>
<path d="M53.9502 28.528C53.5819 28.528 53.2834 28.2295 53.2834 27.8612V18.8899C53.2834 18.5216 53.5819 18.223 53.9502 18.223H54.8567C55.225 18.223 55.5236 18.5216 55.5236 18.8899V19.6297C55.9126 19.1712 56.4266 18.7787 57.0657 18.4523C57.7048 18.1258 58.3994 17.9625 59.1496 17.9625C60.2471 17.9625 61.0772 18.2473 61.6399 18.817C62.2026 19.3866 62.4839 20.2062 62.4839 21.276V27.8612C62.4839 28.2295 62.1853 28.528 61.817 28.528H60.9105C60.5422 28.528 60.2437 28.2295 60.2437 27.8612V22.0887C60.2437 21.3246 60.0631 20.7793 59.7018 20.4528C59.3476 20.1194 58.837 19.9527 58.1702 19.9527C57.6283 19.9527 57.1213 20.0881 56.6489 20.3591C56.2467 20.5838 55.9151 20.8538 55.6539 21.1692C55.5653 21.2763 55.5236 21.4132 55.5236 21.5522V27.8612C55.5236 28.2295 55.225 28.528 54.8567 28.528H53.9502Z" fill="white"/>
<path d="M63.4217 23.3599C63.4217 22.3735 63.6405 21.4705 64.0781 20.6508C64.5227 19.8242 65.1478 19.1712 65.9536 18.6919C66.7594 18.2057 67.659 17.9625 68.6523 17.9625C70.1805 17.9625 71.4066 18.4905 72.3304 19.5463C73.2613 20.5952 73.7267 21.9394 73.7267 23.5787C73.7267 23.8722 73.4887 24.1101 73.1953 24.1101H66.0641C65.9051 24.1101 65.7805 24.2486 65.8106 24.4047C65.9423 25.0879 66.2609 25.667 66.7663 26.1419C67.3499 26.6768 68.1105 26.9443 69.0482 26.9443C69.5692 26.9443 70.0972 26.847 70.632 26.6525C70.8928 26.5556 71.1318 26.4409 71.3491 26.3086C71.704 26.0925 72.1942 26.1326 72.4313 26.4738L72.6722 26.8204C72.8594 27.0898 72.8257 27.4596 72.5634 27.6566C72.1507 27.9665 71.6806 28.2153 71.153 28.403C70.4306 28.66 69.6526 28.7885 68.819 28.7885C67.2561 28.7885 65.964 28.2884 64.9429 27.2881C63.9287 26.2809 63.4217 24.9715 63.4217 23.3599ZM65.7818 22.2493C65.7553 22.4031 65.8791 22.5368 66.0351 22.5368H70.8525C71.2321 22.5368 71.5417 22.2158 71.4361 21.8512C71.4116 21.7666 71.3833 21.6825 71.351 21.599C71.2398 21.2864 71.0731 20.9912 70.8508 20.7133C70.6286 20.4355 70.3264 20.2132 69.9443 20.0465C69.5692 19.8798 69.1385 19.7964 68.6523 19.7964C68.1938 19.7964 67.7771 19.8798 67.4019 20.0465C67.0338 20.2062 66.7351 20.425 66.5059 20.7029C66.2836 20.9738 66.1064 21.2656 65.9745 21.5782C65.8858 21.7949 65.8216 22.0186 65.7818 22.2493Z" fill="white"/>
<path d="M2.56806 29.2817H4.79174V31.1738C4.79174 31.93 5.49437 32.5452 6.35735 32.5452H13.6535C14.5169 32.5452 15.2191 31.93 15.2191 31.1738V29.2817H17.7406C18.7052 29.2817 19.4903 28.5586 19.4903 27.6693V5.37541C19.4903 4.48652 18.7056 3.76298 17.7406 3.76298H15.2191V1.90751C15.2191 1.1513 14.5165 0.536133 13.6535 0.536133H6.35735C5.49395 0.536133 4.79174 1.1513 4.79174 1.90751V3.76298H2.56806C1.60346 3.76298 0.818359 4.48612 0.818359 5.37541V27.6693C0.818359 28.5586 1.60346 29.2817 2.56806 29.2817ZM18.6573 13.5224V14.9599H1.65135V13.5224H18.6573ZM1.65135 12.7256V11.2876H18.6573V12.7256H1.65135ZM18.6573 15.7572V17.1947H1.65135V15.7572H18.6573ZM18.6573 17.9915V19.4291H1.65135V17.9915H18.6573ZM18.6573 20.2263V21.6638H1.65135V20.2263H18.6573ZM18.6573 22.4607V23.8986H1.65135V22.4607H18.6573ZM18.6573 10.4908H1.65135V9.05327H18.6573V10.4908ZM1.65135 24.6954H18.6573V26.133H1.65135V24.6954ZM18.6573 8.25642H1.65135V6.8185H18.6573V8.25642ZM14.3862 31.1738C14.3862 31.4906 14.0575 31.7484 13.6535 31.7484H6.35735C5.95335 31.7484 5.62473 31.4906 5.62473 31.1738V29.2817H14.3862V31.1738ZM17.741 28.4849H2.56806C2.06244 28.4849 1.65135 28.1191 1.65135 27.6693V26.9302H18.6573V27.6693C18.6573 28.1191 18.2462 28.4849 17.741 28.4849ZM5.62473 1.90751C5.62473 1.59076 5.95335 1.33298 6.35735 1.33298H13.6535C14.0575 1.33298 14.3862 1.59076 14.3862 1.90751V3.76298H5.62473V1.90751ZM2.56806 4.55983H17.7406C18.2458 4.55983 18.6573 4.92558 18.6573 5.37541V6.02165H1.65135V5.37541C1.65135 4.92558 2.06244 4.55983 2.56806 4.55983Z" stroke="#F0F0F0" stroke-width="0.533485" mask="url(#path-1-outside-1_26_431)"/>
<path d="M24.4002 16.4934C24.0319 16.4934 23.7333 16.1948 23.7333 15.8265V14.9617C23.7333 14.5934 24.0319 14.2948 24.4002 14.2948H34.1842C34.5525 14.2948 34.851 14.5934 34.851 14.9617V15.8265C34.851 16.1948 34.5525 16.4934 34.1842 16.4934H31.2146C30.8463 16.4934 30.5477 16.7919 30.5477 17.1602V27.8612C30.5477 28.2295 30.2492 28.528 29.8809 28.528H28.7139C28.3456 28.528 28.047 28.2295 28.047 27.8612V17.1602C28.047 16.7919 27.7485 16.4934 27.3802 16.4934H24.4002Z" stroke="#F0F0F0" stroke-width="0.533485" mask="url(#path-1-outside-1_26_431)"/>
<path d="M33.6398 19.0876C33.5066 18.6584 33.8274 18.223 34.2767 18.223H35.1944C35.491 18.223 35.752 18.4189 35.8348 18.7038L37.271 23.6448C37.4541 24.2744 38.3405 24.2896 38.545 23.6666L40.1811 18.6819C40.271 18.4081 40.5266 18.223 40.8147 18.223H41.8077C42.0958 18.223 42.3514 18.4081 42.4413 18.6819L44.0774 23.6666C44.2819 24.2896 45.1684 24.2744 45.3514 23.6448L46.7877 18.7038C46.8704 18.4189 47.1314 18.223 47.428 18.223H48.3457C48.7951 18.223 49.1158 18.6584 48.9826 19.0876L46.1978 28.0589C46.1112 28.3379 45.853 28.528 45.5609 28.528H44.186C43.8951 28.528 43.6377 28.3394 43.5501 28.062L41.5656 21.7791C41.4871 21.5306 41.1354 21.5306 41.0569 21.7791L39.0723 28.062C38.9847 28.3394 38.7273 28.528 38.4364 28.528H37.0615C36.7694 28.528 36.5113 28.3379 36.4247 28.0589L33.6398 19.0876Z" stroke="#F0F0F0" stroke-width="0.533485" mask="url(#path-1-outside-1_26_431)"/>
<path d="M49.6052 16.5559C49.3343 16.285 49.1989 15.9585 49.1989 15.5765C49.1989 15.1944 49.3343 14.8679 49.6052 14.597C49.8831 14.3261 50.2096 14.1906 50.5847 14.1906C50.9737 14.1906 51.3002 14.3261 51.5641 14.597C51.835 14.8679 51.9705 15.1944 51.9705 15.5765C51.9705 15.9585 51.835 16.285 51.5641 16.5559C51.3002 16.8268 50.9737 16.9623 50.5847 16.9623C50.2096 16.9623 49.8831 16.8268 49.6052 16.5559ZM50.1366 28.528C49.7683 28.528 49.4698 28.2295 49.4698 27.8612V18.8899C49.4698 18.5216 49.7683 18.223 50.1366 18.223H51.0431C51.4114 18.223 51.71 18.5216 51.71 18.8899V27.8612C51.71 28.2295 51.4114 28.528 51.0431 28.528H50.1366Z" stroke="#F0F0F0" stroke-width="0.533485" mask="url(#path-1-outside-1_26_431)"/>
<path d="M53.9502 28.528C53.5819 28.528 53.2834 28.2295 53.2834 27.8612V18.8899C53.2834 18.5216 53.5819 18.223 53.9502 18.223H54.8567C55.225 18.223 55.5236 18.5216 55.5236 18.8899V19.6297C55.9126 19.1712 56.4266 18.7787 57.0657 18.4523C57.7048 18.1258 58.3994 17.9625 59.1496 17.9625C60.2471 17.9625 61.0772 18.2473 61.6399 18.817C62.2026 19.3866 62.4839 20.2062 62.4839 21.276V27.8612C62.4839 28.2295 62.1853 28.528 61.817 28.528H60.9105C60.5422 28.528 60.2437 28.2295 60.2437 27.8612V22.0887C60.2437 21.3246 60.0631 20.7793 59.7018 20.4528C59.3476 20.1194 58.837 19.9527 58.1702 19.9527C57.6283 19.9527 57.1213 20.0881 56.6489 20.3591C56.2467 20.5838 55.9151 20.8538 55.6539 21.1692C55.5653 21.2763 55.5236 21.4132 55.5236 21.5522V27.8612C55.5236 28.2295 55.225 28.528 54.8567 28.528H53.9502Z" stroke="#F0F0F0" stroke-width="0.533485" mask="url(#path-1-outside-1_26_431)"/>
<path d="M63.4217 23.3599C63.4217 22.3735 63.6405 21.4705 64.0781 20.6508C64.5227 19.8242 65.1478 19.1712 65.9536 18.6919C66.7594 18.2057 67.659 17.9625 68.6523 17.9625C70.1805 17.9625 71.4066 18.4905 72.3304 19.5463C73.2613 20.5952 73.7267 21.9394 73.7267 23.5787C73.7267 23.8722 73.4887 24.1101 73.1953 24.1101H66.0641C65.9051 24.1101 65.7805 24.2486 65.8106 24.4047C65.9423 25.0879 66.2609 25.667 66.7663 26.1419C67.3499 26.6768 68.1105 26.9443 69.0482 26.9443C69.5692 26.9443 70.0972 26.847 70.632 26.6525C70.8928 26.5556 71.1318 26.4409 71.3491 26.3086C71.704 26.0925 72.1942 26.1326 72.4313 26.4738L72.6722 26.8204C72.8594 27.0898 72.8257 27.4596 72.5634 27.6566C72.1507 27.9665 71.6806 28.2153 71.153 28.403C70.4306 28.66 69.6526 28.7885 68.819 28.7885C67.2561 28.7885 65.964 28.2884 64.9429 27.2881C63.9287 26.2809 63.4217 24.9715 63.4217 23.3599ZM65.7818 22.2493C65.7553 22.4031 65.8791 22.5368 66.0351 22.5368H70.8525C71.2321 22.5368 71.5417 22.2158 71.4361 21.8512C71.4116 21.7666 71.3833 21.6825 71.351 21.599C71.2398 21.2864 71.0731 20.9912 70.8508 20.7133C70.6286 20.4355 70.3264 20.2132 69.9443 20.0465C69.5692 19.8798 69.1385 19.7964 68.6523 19.7964C68.1938 19.7964 67.7771 19.8798 67.4019 20.0465C67.0338 20.2062 66.7351 20.425 66.5059 20.7029C66.2836 20.9738 66.1064 21.2656 65.9745 21.5782C65.8858 21.7949 65.8216 22.0186 65.7818 22.2493Z" stroke="#F0F0F0" stroke-width="0.533485" mask="url(#path-1-outside-1_26_431)"/>
</svg>
